<svg xmlns="http://www.w3.org/2000/svg" viewBox="0 0 1000 450">
  <!-- Definitions -->
  <defs>
    <linearGradient id="headerGradient2" x1="0%" y1="0%" x2="100%" y2="0%">
      <stop offset="0%" style="stop-color:#0c4a6e;stop-opacity:1" />
      <stop offset="100%" style="stop-color:#0284c7;stop-opacity:1" />
    </linearGradient>
    <linearGradient id="cardGradient2" x1="0%" y1="0%" x2="0%" y2="100%">
      <stop offset="0%" style="stop-color:#ffffff;stop-opacity:1" />
      <stop offset="100%" style="stop-color:#f8fafc;stop-opacity:1" />
    </linearGradient>
    <linearGradient id="formulaBg2" x1="0%" y1="0%" x2="100%" y2="0%">
      <stop offset="0%" style="stop-color:#bae6fd;stop-opacity:1" />
      <stop offset="100%" style="stop-color:#e0f2fe;stop-opacity:1" />
    </linearGradient>
    <filter id="cardShadow2" x="-2%" y="-2%" width="104%" height="108%">
      <feDropShadow dx="0" dy="2" stdDeviation="2" flood-opacity="0.1" flood-color="#000000"/>
    </filter>
    <pattern id="subtlePattern2" width="100" height="100" patternUnits="userSpaceOnUse">
      <rect width="100" height="100" fill="#f8fafc"/>
      <path d="M0 10L100 10M10 0L10 100M20 0L20 100M30 0L30 100M40 0L40 100M50 0L50 100M60 0L60 100M70 0L70 100M80 0L80 100M90 0L90 100M0 20L100 20M0 30L100 30M0 40L100 40M0 50L100 50M0 60L100 60M0 70L100 70M0 80L100 80M0 90L100 90" stroke="#e5e7eb" stroke-width="0.5" />
    </pattern>
  </defs>

  <!-- Background -->
  <rect width="1000" height="450" fill="url(#subtlePattern2)" />
  
  <!-- Header -->
  <rect x="0" y="0" width="1000" height="85" fill="url(#headerGradient2)" />
  <text x="50" y="55" font-family="Arial, sans-serif" font-size="32" font-weight="bold" fill="#ffffff">Time-Speed-Distance</text>
  <text x="50" y="80" font-family="Arial, sans-serif" font-size="16" font-style="italic" fill="#bae6fd">Advanced Concepts</text>
  
  <!-- Main Card -->
  <rect x="30" y="105" width="940" height="325" rx="12" fill="url(#cardGradient2)" stroke="#e2e8f0" stroke-width="1" filter="url(#cardShadow2)" />

  <!-- Section 1: TRAIN PROBLEMS -->
  <circle cx="60" cy="150" r="15" fill="#0284c7" />
  <text x="60" y="155" font-family="Arial, sans-serif" font-size="14" font-weight="bold" fill="#ffffff" text-anchor="middle">1</text>
  <rect x="90" y="125" width="840" height="70" rx="8" fill="url(#formulaBg2)" />
  <text x="110" y="155" font-family="Arial, sans-serif" font-size="20" font-weight="bold" fill="#0c4a6e">TRAIN PROBLEMS:</text>
  <text x="110" y="185" font-family="Arial, sans-serif" font-size="18" fill="#0c4a6e">Time = (Train Length + Object Length) / Speed</text>

  <!-- Section 2: AVERAGE SPEED -->
  <circle cx="60" cy="250" r="15" fill="#0284c7" />
  <text x="60" y="255" font-family="Arial, sans-serif" font-size="14" font-weight="bold" fill="#ffffff" text-anchor="middle">2</text>
  <rect x="90" y="225" width="840" height="70" rx="8" fill="url(#formulaBg2)" />
  <text x="110" y="255" font-family="Arial, sans-serif" font-size="20" font-weight="bold" fill="#0c4a6e">AVERAGE SPEED:</text>
  <text x="110" y="285" font-family="Arial, sans-serif" font-size="18" fill="#0c4a6e">2xy/(x+y) - For equal distances</text>

  <!-- Section 3: BOAT STREAM -->
  <circle cx="60" cy="330" r="15" fill="#0284c7" />
  <text x="60" y="335" font-family="Arial, sans-serif" font-size="14" font-weight="bold" fill="#ffffff" text-anchor="middle">3</text>
  <rect x="90" y="305" width="840" height="70" rx="8" fill="url(#formulaBg2)" />
  <text x="110" y="335" font-family="Arial, sans-serif" font-size="20" font-weight="bold" fill="#0c4a6e">BOAT STREAM:</text>
  <text x="110" y="365" font-family="Arial, sans-serif" font-size="18" fill="#0c4a6e">Downstream: b + s</text>
  <text x="450" y="365" font-family="Arial, sans-serif" font-size="18" fill="#0c4a6e">Upstream: b - s</text>

  <!-- Example Box -->
  <rect x="150" y="385" width="700" height="35" rx="8" fill="#e2e8f0" stroke="#cbd5e1" stroke-width="1" />
  <text x="175" y="410" font-family="Arial, sans-serif" font-size="16" fill="#334155">EXAMPLE: 200m train at 30 m/s crosses pole: Time = 200/30 ≈ 6.67 sec</text>
  
  <!-- Decorative Elements -->
  <circle cx="950" cy="30" r="12" fill="#ffffff" opacity="0.3" />
  <circle cx="920" cy="45" r="8" fill="#ffffff" opacity="0.3" />
  <circle cx="935" cy="20" r="5" fill="#ffffff" opacity="0.3" />
  
  <!-- Bottom Design Element -->
  <path d="M30,430 C200,410 400,440 600,420 S800,430 970,420" stroke="#7dd3fc" stroke-width="2" fill="none" />
</svg>
